<svg width="24" height="24" viewBox="0 0 24 24" fill="none" xmlns="http://www.w3.org/2000/svg">
<g clip-path="url(#clip0_536_19815)">
<path d="M9.14188 10.4904C10.1145 10.4904 10.9093 9.71686 10.9446 8.75273V8.61935C10.9093 7.65517 10.1144 6.88159 9.14188 6.88159C8.16983 6.88159 7.37537 7.65423 7.33917 8.61757V8.75455C7.37533 9.7178 8.16983 10.4904 9.14188 10.4904Z" fill="#BFBFBF"/>
<path d="M7.33913 6.03223C7.85334 5.68184 8.47401 5.47657 9.14184 5.47657C9.80966 5.47657 10.4303 5.68184 10.9446 6.03223V2.80957H7.33913V6.03223Z" fill="#BFBFBF"/>
<path d="M18.9006 13.5827L15.4657 9.65771V13.7694L17.4151 15.7188C17.6895 15.9931 17.6895 16.4379 17.4151 16.7122C17.1408 16.9865 16.696 16.9865 16.4217 16.7122L13.1782 13.4688C12.8772 13.1679 12.3875 13.1679 12.0865 13.4688C11.7856 13.7698 11.7856 14.2595 12.0866 14.5605L12.1356 14.6096C12.1409 14.6147 12.1461 14.6199 12.1512 14.6252L15.2837 17.7576C15.5006 17.9745 15.5517 18.3069 15.41 18.5789C15.3833 18.6319 14.7201 19.9792 15.7049 20.9807C15.9769 21.2573 15.9732 21.7021 15.6965 21.9741C15.5597 22.1086 15.3818 22.1757 15.204 22.1757C15.0222 22.1757 14.8406 22.1056 14.7031 21.9658C13.9912 21.2419 13.6733 20.3089 13.7836 19.2678C13.8012 19.1014 13.8286 18.9454 13.8607 18.8026H8.55133C8.80924 19.8467 9.60431 20.7291 10.4438 21.1143C10.8794 21.3142 11.1514 21.7576 11.1514 22.2368V23.2708C11.1514 23.6735 11.4779 24 11.8806 24H18.4396C18.8189 24 19.1349 23.7092 19.1663 23.3312L19.76 16.1943C19.8392 15.2432 19.529 14.3008 18.9006 13.5827Z" fill="#BFBFBF"/>
<path d="M14.0608 12.3728V0.688714C14.0608 0.308343 13.7524 0 13.3721 0H4.9165C4.53613 0 4.22778 0.308343 4.22778 0.688714V16.709C4.22778 17.0894 4.53613 17.3977 4.9165 17.3977H12.9368L11.5012 15.9621H6.63669C6.24873 15.9621 5.93421 15.6476 5.93421 15.2596V2.10717C5.93421 1.71921 6.24873 1.40468 6.63669 1.40468H11.6471C12.035 1.40468 12.3496 1.71921 12.3496 2.10717V11.8577C12.9501 11.7797 13.5769 11.9514 14.0608 12.3728Z" fill="#BFBFBF"/>
<path d="M10.9446 12.6398V11.3398C10.4304 11.6903 9.80971 11.8955 9.14188 11.8955C8.47406 11.8955 7.85339 11.6903 7.33917 11.3398V14.5571H10.5251C10.3581 13.9038 10.4977 13.1876 10.9446 12.6398Z" fill="#BFBFBF"/>
</g>
<defs>
<clipPath id="clip0_536_19815">
<rect width="24" height="24" fill="white"/>
</clipPath>
</defs>
</svg>
