<svg width="24" height="24" viewBox="0 0 24 24" fill="none" xmlns="http://www.w3.org/2000/svg">
<g clip-path="url(#clip0_536_19783)">
<path d="M13.6225 3.18408C13.13 3.18408 12.7294 3.58477 12.7294 4.07724C12.7294 4.56975 13.13 4.97039 13.6225 4.97039C14.115 4.97039 14.5157 4.56971 14.5157 4.07724C14.5157 3.58472 14.115 3.18408 13.6225 3.18408Z" fill="#BFBFBF"/>
<path d="M22.8965 14.4385C23.5049 14.4385 24 13.9435 24 13.335V1.10353C24 0.495047 23.505 0 22.8965 0H10.665C10.0565 0 9.56149 0.495047 9.56149 1.10353V8.16502H13.5141C14.7939 8.16502 15.835 9.20616 15.835 10.4859V14.4385H22.8965ZM19.9391 1.78748C21.2016 1.78748 22.2287 2.81461 22.2287 4.07709C22.2287 5.33958 21.2016 6.36675 19.9391 6.36675C18.6765 6.36675 17.6494 5.33962 17.6494 4.07709C17.6494 2.81456 18.6765 1.78748 19.9391 1.78748ZM19.9391 8.07178C21.2016 8.07178 22.2287 9.09891 22.2287 10.3614C22.2287 11.624 21.2016 12.6511 19.9391 12.6511C18.6765 12.6511 17.6494 11.624 17.6494 10.3614C17.6494 9.09891 18.6765 8.07178 19.9391 8.07178ZM13.6225 6.36675C12.36 6.36675 11.3329 5.33962 11.3329 4.07709C11.3329 2.81456 12.36 1.78748 13.6225 1.78748C14.885 1.78748 15.9122 2.81461 15.9122 4.07709C15.9122 5.33958 14.885 6.36675 13.6225 6.36675Z" fill="#BFBFBF"/>
<path d="M10.3569 20.8854C10.8494 20.8854 11.25 20.4847 11.25 19.9923C11.25 19.4998 10.8493 19.0991 10.3569 19.0991C9.8644 19.0991 9.46371 19.4998 9.46371 19.9923C9.46371 20.4847 9.86436 20.8854 10.3569 20.8854Z" fill="#BFBFBF"/>
<path d="M19.939 11.2546C20.4323 11.2546 20.8322 10.8547 20.8322 10.3614C20.8322 9.86814 20.4323 9.46826 19.939 9.46826C19.4458 9.46826 19.0459 9.86814 19.0459 10.3614C19.0459 10.8547 19.4458 11.2546 19.939 11.2546Z" fill="#BFBFBF"/>
<path d="M19.939 4.97015C20.4316 4.97015 20.8322 4.56946 20.8322 4.07699C20.8322 3.58453 20.4315 3.18384 19.939 3.18384C19.4465 3.18384 19.0459 3.58453 19.0459 4.07699C19.0459 4.56951 19.4465 4.97015 19.939 4.97015Z" fill="#BFBFBF"/>
<path d="M4.08168 14.4623C4.57495 14.4623 4.97483 14.0625 4.97483 13.5692C4.97483 13.0759 4.57495 12.676 4.08168 12.676C3.5884 12.676 3.18852 13.0759 3.18852 13.5692C3.18852 14.0625 3.5884 14.4623 4.08168 14.4623Z" fill="#BFBFBF"/>
<path d="M13.5142 24.0001C14.0239 24.0001 14.4385 23.5854 14.4385 23.0757V10.4859C14.4385 9.97618 14.0239 9.56152 13.5142 9.56152H0.924422C0.414703 9.56152 0 9.97618 0 10.4859V23.0756C0 23.5854 0.414703 24 0.924422 24H13.5142V24.0001ZM10.3569 17.7027C11.6194 17.7027 12.6465 18.7298 12.6465 19.9923C12.6465 21.2548 11.6194 22.2819 10.3569 22.2819C9.09436 22.2819 8.06723 21.2548 8.06723 19.9923C8.06723 18.7298 9.09436 17.7027 10.3569 17.7027ZM4.08169 11.2796C5.34422 11.2796 6.37134 12.3067 6.37134 13.5692C6.37134 14.8318 5.34422 15.8589 4.08169 15.8589C2.81916 15.8589 1.79203 14.8318 1.79203 13.5692C1.79203 12.3067 2.8192 11.2796 4.08169 11.2796Z" fill="#BFBFBF"/>
</g>
<defs>
<clipPath id="clip0_536_19783">
<rect width="24" height="24" fill="white"/>
</clipPath>
</defs>
</svg>
