<svg width="24" height="24" viewBox="0 0 24 24" fill="none" xmlns="http://www.w3.org/2000/svg">
<g clip-path="url(#clip0_536_19888)">
<path d="M14.2508 9.2159C13.3498 8.50833 12.5193 7.65138 12.0016 7.08228C11.4834 7.65086 10.6519 8.50692 9.75028 9.2136C9.42755 9.46653 9.24235 9.83876 9.24211 10.235C9.24192 10.5693 9.37664 10.8846 9.62128 11.1229C9.87116 11.3663 10.205 11.5005 10.5611 11.5007C10.572 11.5007 10.5832 11.5005 10.5943 11.5C10.7909 11.4918 10.9854 11.3942 11.128 11.2321L11.4697 10.8437C11.7113 10.5576 12.2364 10.4986 12.5315 10.8449L12.8708 11.2325C13.0133 11.3951 13.2078 11.4932 13.4044 11.5015C13.4154 11.502 13.4247 11.5011 13.4381 11.5022C13.7944 11.5022 14.1279 11.3685 14.3779 11.1255C14.6228 10.8874 14.7578 10.5722 14.758 10.2379C14.7582 9.84167 14.5733 9.46916 14.2508 9.2159Z" fill="#BFBFBF"/>
<path d="M12 3.68433C8.37283 3.68433 5.42195 6.6352 5.42195 10.2623C5.42195 13.8895 8.37283 16.8403 12 16.8403C15.6271 16.8403 18.578 13.8895 18.578 10.2623C18.578 6.6352 15.6271 3.68433 12 3.68433ZM15.3625 12.1385C14.8474 12.6392 14.164 12.915 13.4384 12.915H13.4369C13.4063 12.915 13.3755 12.9143 13.3449 12.913C13.1265 12.9038 12.9112 12.8593 12.7064 12.7836V13.7384H12.907C13.2971 13.7384 13.6134 14.0547 13.6134 14.4448C13.6134 14.835 13.2971 15.1512 12.907 15.1512H11.093C10.7029 15.1512 10.3866 14.835 10.3866 14.4448C10.3866 14.0547 10.7029 13.7384 11.093 13.7384H11.2937V12.7818C11.0881 12.8579 10.8721 12.9025 10.6531 12.9117C10.6226 12.9129 10.5917 12.9135 10.5607 12.9135C9.83413 12.9132 9.15056 12.6367 8.63556 12.1351C8.1153 11.6283 7.82894 10.9533 7.82932 10.2344C7.82979 9.40135 8.21233 8.62398 8.87883 8.10171C10.2198 7.05084 11.4455 5.57509 11.4577 5.56028C11.5919 5.398 11.7916 5.30397 12.0022 5.30397H12.0027C12.2135 5.30411 12.4132 5.39833 12.5473 5.56098C12.5594 5.57566 13.7835 7.05262 15.1235 8.1049C15.7895 8.62797 16.1712 9.4057 16.1707 10.2387C16.1704 10.9576 15.8834 11.6323 15.3625 12.1385Z" fill="#BFBFBF"/>
<path d="M12.001 0C6.34931 0 1.76777 4.58158 1.76777 10.2333C1.76777 10.2333 1.37538 18.9517 11.5632 23.9125C11.8006 24.0281 12.0782 24.0291 12.3167 23.9157C14.1824 23.0289 22.2342 18.7105 22.2342 10.2333C22.2342 4.58158 17.6527 0 12.001 0ZM12 18.2531C7.59382 18.2531 4.00916 14.6685 4.00916 10.2623C4.00916 5.85619 7.59387 2.27157 12 2.27157C16.4061 2.27157 19.9908 5.85624 19.9908 10.2624C19.9908 14.6685 16.4061 18.2531 12 18.2531Z" fill="#BFBFBF"/>
</g>
<defs>
<clipPath id="clip0_536_19888">
<rect width="24" height="24" fill="white"/>
</clipPath>
</defs>
</svg>
