<svg width="24" height="24" viewBox="0 0 24 24" fill="none" xmlns="http://www.w3.org/2000/svg">
<g clip-path="url(#clip0_536_19769)">
<path d="M16.125 23.68C16.125 23.787 16.115 23.8924 16.0963 23.9955H22.6483C23.3948 23.9955 24 23.3903 24 22.6438V21.634H16.125V23.68Z" fill="#BFBFBF"/>
<path d="M9.25809 23.68C9.25809 23.8041 9.32117 23.8855 9.35873 23.9229C9.38041 23.9445 9.41727 23.9743 9.46804 23.9955H14.5093C14.5608 23.9743 14.5976 23.9445 14.6193 23.9229C14.6569 23.8855 14.7199 23.8042 14.7199 23.68V21.634H9.25809V23.68Z" fill="#BFBFBF"/>
<path d="M7.87504 23.68C7.87504 23.7871 7.88501 23.8924 7.9037 23.9955H1.35172C0.605167 23.9955 0 23.3903 0 22.6438V21.634H7.87504V23.68Z" fill="#BFBFBF"/>
<path d="M9.69662 8.2043L12.0316 11.0931L14.2816 8.28152L11.9468 5.42358L9.69662 8.2043Z" fill="#BFBFBF"/>
<path d="M6.41194 0.871176V14.1781H17.5662V0.871176C17.5662 0.392597 17.1783 0.00463867 16.6997 0.00463867H7.27843C6.7999 0.0046855 6.41194 0.392644 6.41194 0.871176ZM7.84431 1.96003C7.84431 1.57207 8.15883 1.25754 8.54679 1.25754C8.93475 1.25754 9.24928 1.57207 9.24928 1.96003C9.24928 2.34799 8.93475 2.66251 8.54679 2.66251C8.15883 2.66251 7.84431 2.34799 7.84431 1.96003ZM12.5828 12.6531C12.4499 12.8192 12.2488 12.9161 12.0361 12.9166H12.0343C11.8222 12.9166 11.6214 12.8208 11.488 12.6558L8.24683 8.6458C8.03852 8.38809 8.03861 8.01989 8.24707 7.76231L11.3981 3.8683C11.5311 3.70392 11.7311 3.6082 11.9426 3.60773H11.9442C12.1551 3.60773 12.3548 3.70242 12.4883 3.86577L15.729 7.8327C15.9386 8.0893 15.9404 8.4574 15.7334 8.71605L12.5828 12.6531Z" fill="#BFBFBF"/>
<path d="M22.9158 4.08569H18.9712V14.1781H19.8124C20.2003 14.1781 20.5148 14.4926 20.5148 14.8806C20.5148 15.2685 20.2003 15.5831 19.8124 15.5831H4.16583C3.77787 15.5831 3.46334 15.2685 3.46334 14.8806C3.46334 14.4926 3.77787 14.1781 4.16583 14.1781H5.00698V4.08569H1.05953C0.474364 4.08569 0 4.56095 0 5.14729V20.229H23.9754V5.14729C23.9754 4.56095 23.501 4.08569 22.9158 4.08569Z" fill="#BFBFBF"/>
</g>
<defs>
<clipPath id="clip0_536_19769">
<rect width="24" height="24" fill="white"/>
</clipPath>
</defs>
</svg>
