<svg width="24" height="24" viewBox="0 0 24 24" fill="none" xmlns="http://www.w3.org/2000/svg">
<g clip-path="url(#clip0_536_19796)">
<path d="M14.5726 17.2459C14.588 14.5654 16.8031 12.4166 19.4835 12.4166H22.7852V10.9525C22.7852 10.61 22.5074 10.3323 22.1649 10.3323H0.00248718V23.0451C0.00248718 23.5725 0.43004 24.0001 0.957463 24.0001H21.8303C22.3577 24.0001 22.7853 23.5725 22.7853 23.0451V22.1319H19.4302C16.7422 22.1318 14.5572 19.9373 14.5726 17.2459Z" fill="#BFBFBF"/>
<path d="M23.3772 13.8635H19.4591C17.5814 13.8635 16.0233 15.3629 16.0051 17.2405C15.9868 19.1365 17.5238 20.6847 19.4155 20.6847H23.3772C23.7198 20.6847 23.9975 20.407 23.9975 20.0645V14.4838C23.9976 14.1412 23.7198 13.8635 23.3772 13.8635ZM18.6168 17.9788C18.2172 17.9788 17.8932 17.6548 17.8932 17.2553C17.8932 16.8557 18.2172 16.5318 18.6168 16.5318C19.0163 16.5318 19.3403 16.8557 19.3403 17.2553C19.3402 17.6548 19.0163 17.9788 18.6168 17.9788Z" fill="#BFBFBF"/>
<path d="M5.23736 8.88526V2.54268C5.23736 2.15445 5.5521 1.8397 5.94034 1.8397H8.23426V0H4.52936C3.97696 0 3.52911 0.447846 3.52911 1.00029V8.88526H5.23745C5.2374 8.88474 5.23736 8.88577 5.23736 8.88526Z" fill="#BFBFBF"/>
<path d="M11.3049 8.8852V5.70323H8.93723C8.549 5.70323 8.23425 5.38848 8.23425 5.00025V3.24561H6.64327V8.8852C6.64327 8.88571 6.64317 8.88468 6.64317 8.8852H11.3049C11.305 8.88468 11.3049 8.88571 11.3049 8.8852Z" fill="#BFBFBF"/>
<path d="M9.64021 4.29744H13.3247L9.64021 0.894775V4.29744Z" fill="#BFBFBF"/>
<path d="M14.4143 0H10.7438L14.4143 3.38977V0Z" fill="#BFBFBF"/>
<path d="M15.8202 0L15.825 8.88526H17.5821V0H15.8202Z" fill="#BFBFBF"/>
<path d="M14.4191 5.70337H12.7108V8.88534C12.7108 8.88586 12.7107 8.88483 12.7107 8.88534H14.4191V5.70337Z" fill="#BFBFBF"/>
<path d="M2.12315 6.85938H1.70567C0.765221 6.85867 0.00248718 7.62089 0.00248718 8.56134V8.88518H2.12315V6.85938Z" fill="#BFBFBF"/>
<path d="M19.8456 0H18.9881V8.88526H20.8459V1.00029C20.8458 0.447846 20.398 0 19.8456 0V0Z" fill="#BFBFBF"/>
</g>
<defs>
<clipPath id="clip0_536_19796">
<rect width="24" height="24" fill="white"/>
</clipPath>
</defs>
</svg>
