<svg width="24" height="24" viewBox="0 0 24 24" fill="none" xmlns="http://www.w3.org/2000/svg">
<g clip-path="url(#clip0_536_19840)">
<path d="M16.9878 19.0805C19.1812 17.5152 20.5307 14.8847 20.5163 12.1737C20.5839 8.30545 17.574 4.6311 13.7775 3.84573L12.6086 5.87037C12.483 6.0878 12.2511 6.22174 12 6.22174C11.749 6.22174 11.517 6.0878 11.3915 5.87037L10.2103 3.82446C6.45724 4.62037 3.41496 8.29974 3.48382 12.1737C3.38821 16.7347 7.39837 20.7783 12 20.6899C13.8171 20.6899 15.5463 20.1254 16.9878 19.0805ZM10.3947 16.8634C9.9828 17.2753 9.4351 17.5021 8.85254 17.5021C8.26994 17.5021 7.72223 17.2753 7.31034 16.8633C6.89841 16.4514 6.67152 15.9037 6.67152 15.3211C6.67152 14.7386 6.89841 14.1909 7.31034 13.7789C7.72223 13.367 8.26994 13.1402 8.85254 13.1402C9.20376 13.1402 9.54205 13.2232 9.84577 13.3789L11.0511 12.1736L9.86006 10.9826C9.55747 11.1312 9.22752 11.2061 8.89738 11.2061C8.33885 11.2061 7.78037 10.9935 7.35518 10.5684C6.50483 9.71798 6.50483 8.33431 7.35518 7.48397C8.20547 6.63363 9.58918 6.63363 10.4396 7.48397C11.1161 8.16051 11.2538 9.1743 10.8539 9.98885L12.0449 11.1799L13.1903 10.0345C13.0442 9.73845 12.9665 9.41079 12.9665 9.07105C12.9665 8.48844 13.1934 7.94079 13.6053 7.52885C14.0172 7.11696 14.5649 6.89007 15.1475 6.89007C15.7301 6.89007 16.2778 7.11696 16.6897 7.5289C17.1016 7.94079 17.3285 8.48849 17.3285 9.07105C17.3285 9.65361 17.1016 10.2013 16.6897 10.6132C16.2778 11.0251 15.7301 11.252 15.1475 11.252C14.8078 11.252 14.4801 11.1743 14.1841 11.0283L13.0387 12.1737L14.2139 13.3489C14.502 13.2123 14.8192 13.1402 15.1475 13.1402C15.7301 13.1402 16.2778 13.3671 16.6897 13.779C17.1016 14.1909 17.3285 14.7386 17.3285 15.3212C17.3285 15.9038 17.1016 16.4514 16.6897 16.8634C16.2778 17.2753 15.7301 17.5021 15.1475 17.5021C14.5649 17.5021 14.0172 17.2753 13.6053 16.8633C13.1934 16.4514 12.9665 15.9037 12.9665 15.3211C12.9665 14.9699 13.0495 14.6316 13.2053 14.3278L12.0449 13.1674L10.8248 14.3875C10.9614 14.6756 11.0335 14.9929 11.0335 15.3212C11.0335 15.9038 10.8066 16.4515 10.3947 16.8634Z" fill="#BFBFBF"/>
<path d="M19.4898 5.70956C20.2063 6.53456 20.7752 7.46206 21.1823 8.45122L23.028 7.85151C22.6113 6.80028 22.0392 5.80448 21.3192 4.88672C20.7833 4.20348 20.1746 3.58256 19.5093 3.03345L18.3679 4.60455C18.7678 4.94162 19.1433 5.3106 19.4898 5.70956Z" fill="#BFBFBF"/>
<path d="M8.85255 14.5457C8.64539 14.5457 8.45064 14.6263 8.30415 14.7728C8.15765 14.9193 8.07698 15.1141 8.07698 15.3212C8.07698 15.5284 8.15765 15.7231 8.30415 15.8696C8.45064 16.0161 8.64539 16.0968 8.85255 16.0968C9.05967 16.0968 9.25442 16.0161 9.40091 15.8696C9.54741 15.7232 9.62808 15.5284 9.62808 15.3212C9.62808 15.1141 9.54741 14.9193 9.40091 14.7729C9.25442 14.6263 9.05967 14.5457 8.85255 14.5457Z" fill="#BFBFBF"/>
<path d="M14.5087 2.57938C15.4714 2.84019 16.3898 3.24463 17.2331 3.77551L18.3755 2.20319C17.4839 1.62625 16.5188 1.16775 15.5089 0.847168L14.5087 2.57938Z" fill="#BFBFBF"/>
<path d="M15.1475 16.0968C15.3547 16.0968 15.5494 16.0161 15.6959 15.8696C15.8424 15.7231 15.9231 15.5283 15.9231 15.3212C15.9231 15.1141 15.8424 14.9193 15.6959 14.7728C15.5494 14.6264 15.3547 14.5457 15.1475 14.5457C14.9404 14.5457 14.7456 14.6263 14.5991 14.7728C14.4527 14.9193 14.372 15.1141 14.372 15.3212C14.372 15.5284 14.4527 15.7231 14.5991 15.8696C14.7456 16.0161 14.9404 16.0968 15.1475 16.0968Z" fill="#BFBFBF"/>
<path d="M15.1475 9.84671C15.3547 9.84671 15.5494 9.76603 15.6959 9.61954C15.8424 9.47309 15.9231 9.27834 15.9231 9.07118C15.9231 8.86402 15.8424 8.66927 15.6959 8.52282C15.5494 8.37633 15.3547 8.29565 15.1475 8.29565C14.9404 8.29565 14.7456 8.37633 14.5991 8.52282C14.4527 8.66932 14.372 8.86406 14.372 9.07123C14.372 9.27839 14.4527 9.47314 14.5991 9.61959C14.7456 9.76599 14.9404 9.84671 15.1475 9.84671Z" fill="#BFBFBF"/>
<path d="M9.44579 8.47777C9.29456 8.32654 9.09597 8.25098 8.89738 8.25098C8.69879 8.25098 8.50016 8.32654 8.34898 8.47777C8.04662 8.78013 8.04662 9.27218 8.34898 9.57453C8.65138 9.87685 9.14338 9.87694 9.44579 9.57453C9.74815 9.27213 9.74815 8.78013 9.44579 8.47777Z" fill="#BFBFBF"/>
<path d="M5.61356 22.1595C7.30839 23.2473 9.25348 23.8815 11.2973 24V22.0707C9.66621 21.9576 8.11315 21.4511 6.74855 20.5974L5.61356 22.1595Z" fill="#BFBFBF"/>
<path d="M21.2008 15.9021C20.7085 17.1188 19.9727 18.2356 19.0172 19.1909C18.8144 19.3938 18.6038 19.5862 18.387 19.7691L19.5223 21.3317C19.8186 21.0876 20.1047 20.8281 20.3796 20.5532C21.5535 19.3792 22.4501 18.0012 23.0375 16.4989L21.2008 15.9021Z" fill="#BFBFBF"/>
<path d="M12.7027 22.0707V24C14.7465 23.8815 16.6916 23.2473 18.3865 22.1595L17.2515 20.5974C15.8869 21.4511 14.3338 21.9576 12.7027 22.0707Z" fill="#BFBFBF"/>
<path d="M13.8191 0H10.188C9.94524 0 9.79321 0.262631 9.91417 0.473168L12 4.10372L14.0927 0.473542C14.2141 0.263006 14.0621 0 13.8191 0V0Z" fill="#BFBFBF"/>
<path d="M4.47771 21.3317L5.61303 19.7691C5.39622 19.5862 5.18563 19.3938 4.98278 19.1909C4.02736 18.2355 3.29151 17.1188 2.79923 15.9021L0.962448 16.4989C1.54988 18.0012 2.44641 19.3792 3.62043 20.5532C3.89534 20.8281 4.18149 21.0876 4.47771 21.3317Z" fill="#BFBFBF"/>
<path d="M23.8475 12.1737C23.8475 11.1525 23.718 10.152 23.4655 9.18726L21.6238 9.78565C21.8202 10.5625 21.9217 11.3642 21.9217 12.1737C21.9217 12.9905 21.8235 13.792 21.6335 14.5649L23.4697 15.1615C23.7185 14.1978 23.8475 13.1958 23.8475 12.1737Z" fill="#BFBFBF"/>
<path d="M2.68347 4.89086C1.96351 5.80815 1.39126 6.80283 0.974258 7.85233L2.82032 8.45212C3.22738 7.46513 3.79546 6.53804 4.5106 5.71131C4.85672 5.31118 5.23164 4.94085 5.63046 4.60232L4.49341 3.03735C3.82835 3.58674 3.21965 4.20776 2.68347 4.89086Z" fill="#BFBFBF"/>
<path d="M9.48009 2.55987L8.49154 0.847656C7.48262 1.16936 6.5181 1.62876 5.62686 2.2063L6.76204 3.76874C7.60405 3.23364 8.5203 2.82489 9.48009 2.55987Z" fill="#BFBFBF"/>
<path d="M0.152542 12.1738C0.152542 13.1959 0.281562 14.1978 0.53042 15.1616L2.36664 14.565C2.17653 13.792 2.07838 12.9906 2.07838 12.1738C2.07838 11.3653 2.18032 10.5637 2.37765 9.78618L0.535808 9.18774C0.282406 10.1526 0.152542 11.153 0.152542 12.1738Z" fill="#BFBFBF"/>
</g>
<defs>
<clipPath id="clip0_536_19840">
<rect width="24" height="24" fill="white"/>
</clipPath>
</defs>
</svg>
