<svg width="158" height="48" viewBox="0 0 158 48" fill="none" xmlns="http://www.w3.org/2000/svg">
<g clip-path="url(#clip0_536_19899)">
<path d="M83.5441 37.434C83.765 38.7571 84.3556 41.11 86.1741 43.2478C89.7114 47.4058 95.1383 47.5098 96.8327 47.5423C96.8327 47.5423 100.397 47.7267 105.316 45.7196C108.812 44.2929 111.265 42.3037 112.751 41.0528C114.276 39.7697 115.429 38.5559 116.222 37.6515C116.353 37.5119 116.417 37.3291 116.34 37.2412C116.233 37.1186 115.78 37.3406 115.648 37.4043C112.305 39.0252 108.943 40.634 105.454 41.9129C103.201 42.7388 100.266 43.7462 96.7321 43.8717C94.6342 43.9463 93.1892 43.9745 90.9992 43.1884C87.6712 41.994 86.3805 40.4026 85.4623 39.3918C84.7481 38.5783 84.2552 37.814 83.9347 37.2574C83.8734 37.1809 83.7707 37.1522 83.6825 37.1856C83.5853 37.2224 83.5257 37.3269 83.5441 37.434Z" fill="#FDAB0F"/>
<path d="M0.283263 21.3569C1.38253 15.0231 5.62257 11.3066 11.4329 11.3066C17.7669 11.3066 20.8553 14.6567 19.599 20.9383L19.4942 21.4618H13.2127C13.6837 18.5828 13.0557 17.1171 11.3282 17.1171C9.49614 17.1171 7.87338 19.0015 7.29746 21.9853C6.61695 26.1207 8.92021 28.2145 13.4743 28.2145C15.4111 28.2145 17.0863 28.0574 18.5518 27.7434L17.3479 33.3444C15.9346 33.8154 13.9978 34.0249 11.5375 34.0249C3.11001 34.0246 -1.18247 29.7322 0.283263 21.3569Z" fill="white"/>
<path d="M42.9352 12.8821L39.2981 33.9423C38.7852 33.9764 37.1758 33.9453 36.3004 33.6908C35.6627 33.5055 34.7188 32.9002 34.373 32.4158C32.4182 33.4283 30.3304 33.7628 28.6554 33.7628C23.8388 33.7628 21.2589 30.7329 21.2721 25.7809C21.275 24.6996 20.8438 19.0794 24.8767 14.75C25.4429 14.1423 26.1252 13.5275 26.9825 12.9874C30.9265 10.5018 35.5226 11.2631 38.6151 11.7837C39.663 11.9603 41.1648 12.2764 42.9352 12.8821ZM35.7744 17.2736C35.5418 17.0334 34.3431 16.7171 33.5056 16.7171C30.8883 16.7171 28.9705 18.473 28.1681 22.3115C27.9236 23.4984 26.9424 28.2619 30.7974 28.5782C31.7014 28.6523 32.8036 28.7232 33.9209 28.0247L35.7744 17.2736Z" fill="white"/>
<path d="M52.7872 25.7016C47.9189 24.6547 45.8775 22.9274 46.7673 17.7451C47.5526 13.4527 50.7458 11.3066 56.3467 11.3066C58.8594 11.3066 61.0055 11.6731 62.733 12.4583L62.4189 18.1116C60.6916 17.1169 58.4929 16.5936 55.8234 16.5936C54.2006 16.5936 53.3631 16.9599 53.2584 17.7453C53.049 18.6351 53.8341 18.9491 55.3522 19.368C60.5344 20.4673 62.3142 22.6135 61.3197 27.6387C60.5869 31.8787 57.5507 34.0247 52.2114 34.0247C49.123 34.0247 46.6628 33.6584 44.7258 32.8732L44.9351 27.2722C46.9244 28.2669 49.3846 28.7379 52.316 28.7379C53.991 28.7379 54.881 28.3192 55.038 27.4292C55.195 26.5393 54.5146 26.0679 52.7872 25.7016Z" fill="white"/>
<path d="M74.8771 11.7777L71.0558 33.5012H64.2507L68.072 11.7777H74.8771ZM73.359 0C75.6623 0 77.0233 1.36099 76.6045 3.92596C76.2382 6.22919 74.6153 7.69491 72.2598 7.69491C69.9565 7.69491 68.5955 6.28148 69.0143 3.71651C69.3806 1.46572 71.0033 0 73.359 0Z" fill="white"/>
<path d="M81.8833 1.30855L88.8976 0L86.8115 11.9872C88.0678 11.5161 89.3765 11.3067 90.7376 11.3067C96.6003 11.3067 99.6888 15.3897 98.2752 23.5032C97.0714 30.2559 92.5173 34.0246 85.974 34.0246C82.938 34.0246 79.7448 33.5012 76.3945 32.5066L81.8833 1.30855ZM84.0372 27.7432C84.6655 28.0572 85.3458 28.2142 86.0788 28.2142C88.8531 28.2142 90.5805 26.3297 91.2088 22.5609C91.837 18.8967 90.8423 17.0647 88.2773 17.0647C87.178 17.0647 86.3405 17.2217 85.8172 17.5357L84.0372 27.7432Z" fill="#FDAB0F"/>
<path d="M112.775 11.3066C120.051 11.3066 123.768 16.1224 122.459 23.6601C121.36 29.9416 116.806 34.0246 110.682 34.0246C103.353 34.0246 99.5841 29.2088 100.997 21.6711C102.201 15.3895 106.546 11.3066 112.775 11.3066ZM110.734 28.2142C113.089 28.2142 114.765 25.8586 115.34 22.6656C115.969 19.3679 115.026 17.1169 112.723 17.1169C110.42 17.1169 108.692 19.3154 108.117 22.6656C107.541 26.0679 108.483 28.2142 110.734 28.2142Z" fill="#FDAB0F"/>
<path d="M124.448 33.5013L128.008 13.0341C131.62 11.8824 135.179 11.3066 138.582 11.3066C140.466 11.3066 141.984 11.8824 143.136 13.0341C145.492 11.8824 147.847 11.3066 150.203 11.3066C155.856 11.3066 158.84 13.8716 157.793 19.6819L155.385 33.5011H148.58L150.622 21.7757C151.197 18.5826 150.255 16.9599 147.9 16.9599C147.219 16.9599 146.329 17.1694 145.335 17.5881C145.596 18.8967 145.544 20.4147 145.282 22.1946L143.293 33.5013H136.488L138.53 21.7758C139.106 18.4781 138.477 16.9601 136.331 16.9601C135.651 16.9601 134.865 17.0648 134.08 17.2218L131.254 33.5013H124.448Z" fill="#FDAB0F"/>
</g>
<defs>
<clipPath id="clip0_536_19899">
<rect width="158" height="48" fill="white"/>
</clipPath>
</defs>
</svg>
