<svg width="137" height="24" viewBox="0 0 137 24" fill="none" xmlns="http://www.w3.org/2000/svg">
<path d="M4.53612 8.23612C3.0725 8.15625 1.90625 6.94055 1.90625 5.45733V2.88806H4.04595V1.48181H1.20312C0.814812 1.48181 0.5 1.79662 0.5 2.18494V5.45733C0.5 7.76742 2.37941 9.64678 4.68945 9.64678H5.19345C4.93297 9.20086 4.71233 8.72901 4.53612 8.23612Z" fill="#FFB80C"/>
<path d="M23.7969 1.48181H20.934V2.88806H23.0938V5.45733C23.0938 6.94744 21.9166 8.16755 20.4434 8.2372C20.2673 8.72972 20.0467 9.20119 19.7864 9.64683H20.3105C22.6206 9.64683 24.5 7.76742 24.5 5.45737V2.18494C24.5 1.79662 24.1852 1.48181 23.7969 1.48181Z" fill="#FFB80C"/>
<path d="M14.2631 16.1177L14.2637 13.6571C13.6916 13.7799 13.0983 13.8451 12.49 13.8451C11.8501 13.8451 11.2268 13.7732 10.6273 13.6377V16.1177H14.2631Z" fill="#FFB80C"/>
<path d="M18.2007 22.5913H17.3613V18.087C17.3613 17.776 17.1092 17.524 16.7983 17.524H8.20164C7.89072 17.524 7.63867 17.776 7.63867 18.087V22.5913H6.85014C6.47153 22.5913 6.14575 22.8823 6.12794 23.2605C6.10891 23.6642 6.43066 23.9976 6.83027 23.9976H18.2206C18.6202 23.9976 18.942 23.6642 18.9229 23.2605C18.9051 22.8823 18.5793 22.5913 18.2007 22.5913ZM9.89894 19.5889H15.101C15.4893 19.5889 15.8042 19.9037 15.8042 20.292C15.8042 20.6804 15.4893 20.9952 15.101 20.9952H9.89894C9.51063 20.9952 9.19581 20.6804 9.19581 20.292C9.19581 19.9037 9.51063 19.5889 9.89894 19.5889Z" fill="#FFB80C"/>
<path d="M13.0505 4.68853L12.5 3.573L11.9494 4.68853C11.847 4.89605 11.649 5.03986 11.42 5.07314L10.189 5.25201L11.0798 6.12033C11.2455 6.28186 11.3211 6.51459 11.282 6.74269L11.0717 7.9687L12.1728 7.3898C12.2752 7.33598 12.3876 7.30903 12.5 7.30903C12.6124 7.30903 12.7248 7.33594 12.8272 7.3898L13.9283 7.9687L13.718 6.74269C13.6789 6.51459 13.7545 6.28186 13.9202 6.12033L14.811 5.25201L13.58 5.07314C13.351 5.03986 13.153 4.89605 13.0505 4.68853Z" fill="#FFB80C"/>
<path d="M18.7878 0.00243759H6.19218C5.78352 0.00243759 5.45221 0.33375 5.45221 0.742406V5.40117C5.45221 9.28842 8.62016 12.4498 12.5099 12.4389C16.4001 12.428 19.5277 9.22322 19.5277 5.33302V0.742359C19.5277 0.333703 19.1964 0.00243759 18.7878 0.00243759ZM16.8128 5.26458L15.1665 6.8693L15.5551 9.13523C15.6004 9.39905 15.4919 9.66563 15.2754 9.82298C15.1529 9.91195 15.0079 9.95723 14.8621 9.95723C14.7501 9.95723 14.6378 9.93056 14.5349 9.87647L12.5 8.80664L10.4651 9.87652C10.2283 10.001 9.9411 9.9803 9.72458 9.82298C9.50807 9.66567 9.3996 9.39905 9.44488 9.13523L9.83352 6.8693L8.18723 5.26458C7.9956 5.07778 7.9266 4.79836 8.00933 4.54378C8.09202 4.28925 8.31205 4.10372 8.57694 4.06528L10.8521 3.73467L11.8695 1.67306C11.988 1.43306 12.2324 1.28114 12.5001 1.28114C12.7677 1.28114 13.0121 1.43306 13.1306 1.67306L14.148 3.73467L16.4232 4.06528C16.688 4.10372 16.9081 4.28925 16.9908 4.54378C17.0734 4.79836 17.0045 5.07778 16.8128 5.26458Z" fill="#FFB80C"/>
<path d="M32.5361 8.23612C31.0724 8.15625 29.9062 6.94055 29.9062 5.45733V2.88806H32.0459V1.48181H29.2031C28.8148 1.48181 28.4999 1.79662 28.4999 2.18494V5.45733C28.4999 7.76742 30.3793 9.64678 32.6894 9.64678H33.1934C32.9329 9.20086 32.7123 8.72901 32.5361 8.23612Z" fill="#FFB80C"/>
<path d="M51.7968 1.48181H48.9339V2.88806H51.0937V5.45733C51.0937 6.94744 49.9166 8.16755 48.4434 8.2372C48.2672 8.72972 48.0467 9.20119 47.7864 9.64683H48.3104C50.6205 9.64683 52.4999 7.76742 52.4999 5.45737V2.18494C52.4999 1.79662 52.1851 1.48181 51.7968 1.48181Z" fill="#FFB80C"/>
<path d="M42.263 16.1177L42.2637 13.6571C41.6915 13.7799 41.0982 13.8451 40.4899 13.8451C39.85 13.8451 39.2267 13.7732 38.6272 13.6377V16.1177H42.263Z" fill="#FFB80C"/>
<path d="M46.2007 22.5913H45.3612V18.087C45.3612 17.776 45.1091 17.524 44.7982 17.524H36.2016C35.8907 17.524 35.6386 17.776 35.6386 18.087V22.5913H34.8501C34.4715 22.5913 34.1457 22.8823 34.1279 23.2605C34.1088 23.6642 34.4306 23.9976 34.8302 23.9976H46.2206C46.6202 23.9976 46.9419 23.6642 46.9229 23.2605C46.9051 22.8823 46.5793 22.5913 46.2007 22.5913ZM37.8989 19.5889H43.101C43.4893 19.5889 43.8041 19.9037 43.8041 20.292C43.8041 20.6804 43.4893 20.9952 43.101 20.9952H37.8989C37.5106 20.9952 37.1958 20.6804 37.1958 20.292C37.1958 19.9037 37.5106 19.5889 37.8989 19.5889Z" fill="#FFB80C"/>
<path d="M41.0505 4.68853L40.4999 3.573L39.9494 4.68853C39.847 4.89605 39.649 5.03986 39.42 5.07314L38.1889 5.25201L39.0797 6.12033C39.2454 6.28186 39.321 6.51459 39.2819 6.74269L39.0717 7.9687L40.1727 7.3898C40.2752 7.33598 40.3876 7.30903 40.4999 7.30903C40.6123 7.30903 40.7247 7.33594 40.8271 7.3898L41.9282 7.9687L41.7179 6.74269C41.6788 6.51459 41.7545 6.28186 41.9202 6.12033L42.811 5.25201L41.5799 5.07314C41.3509 5.03986 41.1529 4.89605 41.0505 4.68853Z" fill="#FFB80C"/>
<path d="M46.7877 0.00243759H34.1921C33.7835 0.00243759 33.4521 0.33375 33.4521 0.742406V5.40117C33.4521 9.28842 36.6201 12.4498 40.5099 12.4389C44.4 12.428 47.5277 9.22322 47.5277 5.33302V0.742359C47.5277 0.333703 47.1964 0.00243759 46.7877 0.00243759ZM44.8127 5.26458L43.1664 6.8693L43.5551 9.13523C43.6003 9.39905 43.4919 9.66563 43.2754 9.82298C43.1529 9.91195 43.0078 9.95723 42.862 9.95723C42.7501 9.95723 42.6378 9.93056 42.5349 9.87647L40.4999 8.80664L38.465 9.87652C38.2282 10.001 37.941 9.9803 37.7245 9.82298C37.508 9.66567 37.3995 9.39905 37.4448 9.13523L37.8335 6.8693L36.1872 5.26458C35.9955 5.07778 35.9265 4.79836 36.0093 4.54378C36.092 4.28925 36.312 4.10372 36.5769 4.06528L38.852 3.73467L39.8695 1.67306C39.9879 1.43306 40.2324 1.28114 40.5 1.28114C40.7676 1.28114 41.0121 1.43306 41.1305 1.67306L42.148 3.73467L44.4231 4.06528C44.6879 4.10372 44.908 4.28925 44.9907 4.54378C45.0734 4.79836 45.0044 5.07778 44.8127 5.26458Z" fill="#FFB80C"/>
<path d="M60.536 8.23612C59.0724 8.15625 57.9061 6.94055 57.9061 5.45733V2.88806H60.0458V1.48181H57.203C56.8147 1.48181 56.4999 1.79662 56.4999 2.18494V5.45733C56.4999 7.76742 58.3793 9.64678 60.6893 9.64678H61.1933C60.9328 9.20086 60.7122 8.72901 60.536 8.23612Z" fill="#FFB80C"/>
<path d="M79.7968 1.48181H76.9339V2.88806H79.0936V5.45733C79.0936 6.94744 77.9165 8.16755 76.4433 8.2372C76.2672 8.72972 76.0466 9.20119 75.7863 9.64683H76.3104C78.6205 9.64683 80.4998 7.76742 80.4998 5.45737V2.18494C80.4999 1.79662 80.1851 1.48181 79.7968 1.48181Z" fill="#FFB80C"/>
<path d="M70.2629 16.1177L70.2636 13.6571C69.6914 13.7799 69.0982 13.8451 68.4899 13.8451C67.85 13.8451 67.2267 13.7732 66.6271 13.6377V16.1177H70.2629Z" fill="#FFB80C"/>
<path d="M74.2006 22.5913H73.3611V18.087C73.3611 17.776 73.1091 17.524 72.7982 17.524H64.2015C63.8906 17.524 63.6386 17.776 63.6386 18.087V22.5913H62.85C62.4714 22.5913 62.1456 22.8823 62.1278 23.2605C62.1088 23.6642 62.4305 23.9976 62.8301 23.9976H74.2205C74.6201 23.9976 74.9418 23.6642 74.9228 23.2605C74.905 22.8823 74.5792 22.5913 74.2006 22.5913ZM65.8988 19.5889H71.1009C71.4892 19.5889 71.804 19.9037 71.804 20.292C71.804 20.6804 71.4892 20.9952 71.1009 20.9952H65.8988C65.5105 20.9952 65.1957 20.6804 65.1957 20.292C65.1957 19.9037 65.5105 19.5889 65.8988 19.5889Z" fill="#FFB80C"/>
<path d="M69.0504 4.68853L68.4999 3.573L67.9493 4.68853C67.8469 4.89605 67.6489 5.03986 67.4199 5.07314L66.1888 5.25201L67.0797 6.12033C67.2454 6.28186 67.321 6.51459 67.2819 6.74269L67.0716 7.9687L68.1727 7.3898C68.2751 7.33598 68.3875 7.30903 68.4999 7.30903C68.6122 7.30903 68.7246 7.33594 68.8271 7.3898L69.9282 7.9687L69.7179 6.74269C69.6788 6.51459 69.7544 6.28186 69.9201 6.12033L70.8109 5.25201L69.5799 5.07314C69.3508 5.03986 69.1528 4.89605 69.0504 4.68853Z" fill="#FFB80C"/>
<path d="M74.7877 0.00243759H62.1921C61.7834 0.00243759 61.4521 0.33375 61.4521 0.742406V5.40117C61.4521 9.28842 64.62 12.4498 68.5098 12.4389C72.4 12.428 75.5276 9.22322 75.5276 5.33302V0.742359C75.5276 0.333703 75.1963 0.00243759 74.7877 0.00243759ZM72.8127 5.26458L71.1664 6.8693L71.555 9.13523C71.6002 9.39905 71.4918 9.66563 71.2753 9.82298C71.1528 9.91195 71.0077 9.95723 70.862 9.95723C70.75 9.95723 70.6377 9.93056 70.5348 9.87647L68.4999 8.80664L66.4649 9.87652C66.2281 10.001 65.941 9.9803 65.7245 9.82298C65.5079 9.66567 65.3995 9.39905 65.4448 9.13523L65.8334 6.8693L64.1871 5.26458C63.9955 5.07778 63.9265 4.79836 64.0092 4.54378C64.0919 4.28925 64.3119 4.10372 64.5768 4.06528L66.8519 3.73467L67.8694 1.67306C67.9879 1.43306 68.2323 1.28114 68.4999 1.28114C68.7675 1.28114 69.012 1.43306 69.1304 1.67306L70.1479 3.73467L72.423 4.06528C72.6879 4.10372 72.908 4.28925 72.9907 4.54378C73.0733 4.79836 73.0043 5.07778 72.8127 5.26458Z" fill="#FFB80C"/>
<path d="M88.536 8.23612C87.0724 8.15625 85.9061 6.94055 85.9061 5.45733V2.88806H88.0458V1.48181H85.203C84.8147 1.48181 84.4999 1.79662 84.4999 2.18494V5.45733C84.4999 7.76742 86.3793 9.64678 88.6893 9.64678H89.1933C88.9328 9.20086 88.7122 8.72901 88.536 8.23612Z" fill="#FFB80C"/>
<path d="M107.797 1.48181H104.934V2.88806H107.094V5.45733C107.094 6.94744 105.917 8.16755 104.443 8.2372C104.267 8.72972 104.047 9.20119 103.786 9.64683H104.31C106.62 9.64683 108.5 7.76742 108.5 5.45737V2.18494C108.5 1.79662 108.185 1.48181 107.797 1.48181Z" fill="#FFB80C"/>
<path d="M98.2629 16.1177L98.2636 13.6571C97.6914 13.7799 97.0982 13.8451 96.4899 13.8451C95.85 13.8451 95.2267 13.7732 94.6271 13.6377V16.1177H98.2629Z" fill="#FFB80C"/>
<path d="M102.201 22.5913H101.361V18.087C101.361 17.776 101.109 17.524 100.798 17.524H92.2015C91.8906 17.524 91.6386 17.776 91.6386 18.087V22.5913H90.85C90.4714 22.5913 90.1456 22.8823 90.1278 23.2605C90.1088 23.6642 90.4305 23.9976 90.8301 23.9976H102.22C102.62 23.9976 102.942 23.6642 102.923 23.2605C102.905 22.8823 102.579 22.5913 102.201 22.5913ZM93.8988 19.5889H99.1009C99.4892 19.5889 99.804 19.9037 99.804 20.292C99.804 20.6804 99.4892 20.9952 99.1009 20.9952H93.8988C93.5105 20.9952 93.1957 20.6804 93.1957 20.292C93.1957 19.9037 93.5105 19.5889 93.8988 19.5889Z" fill="#FFB80C"/>
<path d="M97.0504 4.68853L96.4999 3.573L95.9493 4.68853C95.8469 4.89605 95.6489 5.03986 95.4199 5.07314L94.1888 5.25201L95.0797 6.12033C95.2454 6.28186 95.321 6.51459 95.2819 6.74269L95.0716 7.9687L96.1727 7.3898C96.2751 7.33598 96.3875 7.30903 96.4999 7.30903C96.6122 7.30903 96.7246 7.33594 96.8271 7.3898L97.9282 7.9687L97.7179 6.74269C97.6788 6.51459 97.7544 6.28186 97.9201 6.12033L98.8109 5.25201L97.5799 5.07314C97.3508 5.03986 97.1528 4.89605 97.0504 4.68853Z" fill="#FFB80C"/>
<path d="M102.788 0.00243759H90.1921C89.7834 0.00243759 89.4521 0.33375 89.4521 0.742406V5.40117C89.4521 9.28842 92.62 12.4498 96.5098 12.4389C100.4 12.428 103.528 9.22322 103.528 5.33302V0.742359C103.528 0.333703 103.196 0.00243759 102.788 0.00243759ZM100.813 5.26458L99.1664 6.8693L99.555 9.13523C99.6002 9.39905 99.4918 9.66563 99.2753 9.82298C99.1528 9.91195 99.0077 9.95723 98.862 9.95723C98.75 9.95723 98.6377 9.93056 98.5348 9.87647L96.4999 8.80664L94.4649 9.87652C94.2281 10.001 93.941 9.9803 93.7245 9.82298C93.5079 9.66567 93.3995 9.39905 93.4448 9.13523L93.8334 6.8693L92.1871 5.26458C91.9955 5.07778 91.9265 4.79836 92.0092 4.54378C92.0919 4.28925 92.3119 4.10372 92.5768 4.06528L94.8519 3.73467L95.8694 1.67306C95.9879 1.43306 96.2323 1.28114 96.4999 1.28114C96.7675 1.28114 97.012 1.43306 97.1304 1.67306L98.1479 3.73467L100.423 4.06528C100.688 4.10372 100.908 4.28925 100.991 4.54378C101.073 4.79836 101.004 5.07778 100.813 5.26458Z" fill="#FFB80C"/>
<path d="M116.536 8.23612C115.072 8.15625 113.906 6.94055 113.906 5.45733V2.88806H116.046V1.48181H113.203C112.815 1.48181 112.5 1.79662 112.5 2.18494V5.45733C112.5 7.76742 114.379 9.64678 116.689 9.64678H117.193C116.933 9.20086 116.712 8.72901 116.536 8.23612Z" fill="#FFB80C"/>
<path d="M135.797 1.48181H132.934V2.88806H135.094V5.45733C135.094 6.94744 133.916 8.16755 132.443 8.2372C132.267 8.72972 132.047 9.20119 131.786 9.64683H132.31C134.62 9.64683 136.5 7.76742 136.5 5.45737V2.18494C136.5 1.79662 136.185 1.48181 135.797 1.48181Z" fill="#FFB80C"/>
<path d="M126.263 16.1177L126.264 13.6571C125.691 13.7799 125.098 13.8451 124.49 13.8451C123.85 13.8451 123.227 13.7732 122.627 13.6377V16.1177H126.263Z" fill="#FFB80C"/>
<path d="M130.201 22.5913H129.361V18.087C129.361 17.776 129.109 17.524 128.798 17.524H120.201C119.891 17.524 119.638 17.776 119.638 18.087V22.5913H118.85C118.471 22.5913 118.146 22.8823 118.128 23.2605C118.109 23.6642 118.43 23.9976 118.83 23.9976H130.22C130.62 23.9976 130.942 23.6642 130.923 23.2605C130.905 22.8823 130.579 22.5913 130.201 22.5913ZM121.899 19.5889H127.101C127.489 19.5889 127.804 19.9037 127.804 20.292C127.804 20.6804 127.489 20.9952 127.101 20.9952H121.899C121.51 20.9952 121.196 20.6804 121.196 20.292C121.196 19.9037 121.51 19.5889 121.899 19.5889Z" fill="#FFB80C"/>
<path d="M125.05 4.68853L124.5 3.573L123.949 4.68853C123.847 4.89605 123.649 5.03986 123.42 5.07314L122.189 5.25201L123.08 6.12033C123.245 6.28186 123.321 6.51459 123.282 6.74269L123.072 7.9687L124.173 7.3898C124.275 7.33598 124.387 7.30903 124.5 7.30903C124.612 7.30903 124.725 7.33594 124.827 7.3898L125.928 7.9687L125.718 6.74269C125.679 6.51459 125.754 6.28186 125.92 6.12033L126.811 5.25201L125.58 5.07314C125.351 5.03986 125.153 4.89605 125.05 4.68853Z" fill="#FFB80C"/>
<path d="M130.788 0.00243759H118.192C117.783 0.00243759 117.452 0.33375 117.452 0.742406V5.40117C117.452 9.28842 120.62 12.4498 124.51 12.4389C128.4 12.428 131.528 9.22322 131.528 5.33302V0.742359C131.528 0.333703 131.196 0.00243759 130.788 0.00243759ZM128.813 5.26458L127.166 6.8693L127.555 9.13523C127.6 9.39905 127.492 9.66563 127.275 9.82298C127.153 9.91195 127.008 9.95723 126.862 9.95723C126.75 9.95723 126.638 9.93056 126.535 9.87647L124.5 8.80664L122.465 9.87652C122.228 10.001 121.941 9.9803 121.724 9.82298C121.508 9.66567 121.399 9.39905 121.445 9.13523L121.833 6.8693L120.187 5.26458C119.995 5.07778 119.926 4.79836 120.009 4.54378C120.092 4.28925 120.312 4.10372 120.577 4.06528L122.852 3.73467L123.869 1.67306C123.988 1.43306 124.232 1.28114 124.5 1.28114C124.767 1.28114 125.012 1.43306 125.13 1.67306L126.148 3.73467L128.423 4.06528C128.688 4.10372 128.908 4.28925 128.991 4.54378C129.073 4.79836 129.004 5.07778 128.813 5.26458Z" fill="#FFB80C"/>
</svg>
